<?xml version="1.0" encoding="iso-8859-1"?>
<!-- Uploaded to: SVG Repo, www.svgrepo.com, Generator: SVG Repo Mixer Tools -->
<svg width="25px" height="25px" version="1.1" id="Layer_1" xmlns="http://www.w3.org/2000/svg" xmlns:xlink="http://www.w3.org/1999/xlink" 
	 viewBox="0 0 509.287 509.287" xml:space="preserve">
<circle style="fill:#F0582F;" cx="254.644" cy="254.644" r="254.644"/>
<path style="fill:#4F5565;" d="M362.808,432.657V420.45c14.241,0,26.109-11.528,26.109-26.109V54.591h12.207v340.09
	C400.784,415.703,383.83,432.657,362.808,432.657z"/>
<path style="fill:#DEDEDF;" d="M440.456,110.538H68.832c-5.425,0-9.833,4.408-9.833,9.833V372.98c0,5.425,4.408,9.833,9.833,9.833
	h371.624c5.425,0,9.833-4.408,9.833-9.833V120.371C450.289,114.946,445.881,110.538,440.456,110.538z"/>
<rect x="79.004" y="130.543" style="fill:#6EB1E1;" width="350.94" height="232.604"/>
<rect x="154.956" y="441.473" style="fill:#F1F3F7;" width="199.036" height="18.988"/>
<polygon style="fill:#BDBDBE;" points="292.62,382.813 216.668,382.813 188.864,441.473 320.424,441.473 "/>
<path style="fill:#4F5565;" d="M362.808,432.657c-21.023,0-37.976-16.954-37.976-37.976v-252.27
	c0-45.097-36.62-81.717-81.717-81.717s-82.056,36.62-82.056,81.717v18.649h-12.207v-18.649c0-51.878,42.045-93.923,93.923-93.923
	s93.923,42.045,93.923,93.923v252.27c0,14.241,11.529,26.109,26.109,26.109L362.808,432.657L362.808,432.657z"/>
<rect x="105.791" y="194.289" style="fill:#F1F3F7;" width="98.67" height="145.801"/>
<g>
	<rect x="117.658" y="153.261" style="fill:#DEDEDF;" width="74.596" height="41.028"/>
	<rect x="117.658" y="211.581" style="fill:#DEDEDF;" width="74.596" height="66.458"/>
</g>
<rect x="145.801" y="235.995" style="fill:#BDBDBE;" width="18.649" height="85.107"/>
</svg>